#!OML:ASF F:\VICON\USERDATA\INSTALL\rory3\rory3.ASF
:FULLY-SPECIFIED
:DEGREES
10
root -0.5724059938809551 16.801314722789026 -26.682285308696127 3.785469256241688 -4.718777897978252 -6.260382811247824
lfemur -19.174398817071868 6.549161877867435 -9.258648029538165
ltibia 104.03298239190188
lfoot 27.941588225591286 -19.30008879497934
ltoes 11.508080713675357
rfemur -29.293394324021378 7.2110102543457755 35.66018966185335
rtibia 54.93230235917026
rfoot -21.732884858183912 -14.755485897919906
rtoes 2.2273101525981054
lowerback 18.708784973481954 -0.4197987186811821 3.592813692216714
upperback 0.2258049420833007 0.6313488492674806 3.9217807244342087
thorax -10.30349074025616 0.23074492614311787 2.0849925693148683
lowerneck -18.670504140586896 -2.413461514174164 -2.1965412061795995
upperneck 12.949595446865754 -2.837391952852842 0.8695061995966098
head 7.0614083685002385 -1.391060762636889 0.31690525604002767
lclavicle -6.47765758954973e-16 -4.860687341859907e-15
lhumerus -47.04760216682644 -7.934640560371601 96.79140084432049
lradius 95.07371914927111
lwrist 33.01059658663539
lhand -30.3222045623033 1.5007155407070976
lfingers 7.125019999999998
lthumb -3.628654526998054 31.449595456034125
rclavicle -6.47765758954973e-16 -4.860687341859907e-15
rhumerus -44.037706870576464 6.921129694581805 -93.36551423299466
rradius 99.03481245790697
rwrist -9.745759414060593
rhand -21.246187409400726 41.03769182930333
rfingers 7.125019999999998
rthumb 5.136692691968706 11.119992187915404
11
root -0.6128146500397129 16.80061471615488 -25.710686115445835 4.0054380444520525 -2.9272718438920213 -6.118673441692612
lfemur -26.082995207653486 5.815933672701041 -9.000978297102389
ltibia 106.73398312164151
lfoot 23.59529057706159 -17.756390390216747
ltoes 4.053908243117977
rfemur -25.495996189762863 7.040390556894915 35.85338985230947
rtibia 54.948602252794494
rfoot -25.806882298625467 -15.937683929527044
rtoes 5.749867852107165
lowerback 18.254786805760247 -0.5081779573186037 3.239094828745878
upperback 0.07468893089200346 0.4441188798024138 4.140888983858956
thorax -10.21869145330272 0.16801874773632447 2.574480263016298
lowerneck -17.83680796698063 -2.631740060951329 -2.373837820840275
upperneck 12.511797242075316 -3.1200604410403154 0.9598396631667065
head 6.788392091161607 -1.530869322195202 0.35478264286745925
lclavicle -6.477656970565858e-16 -4.860687390552724e-15
lhumerus -49.42730047503762 -8.060629768113671 97.75629737734509
lradius 95.04721921139323
lwrist 31.383198112813435
lhand -31.081801921668692 -0.31381925993315907
lfingers 7.125019999999998
lthumb -4.362091910775389 29.621301624310895
rclavicle -6.477656970565858e-16 -4.860687390552724e-15
rhumerus -41.67751015414665 8.165316871880812 -93.60801369830482
rradius 101.24000997565314
rwrist -10.425907867010958
rhand -21.048888322544187 41.0321920676739
rfingers 7.125019999999998
rthumb 5.327161638096742 11.1191921967084
12
root -0.638198809241994 16.86221377969367 -24.705087376411534 4.386135972302207 -1.125855517001517 -5.447525936156118
lfemur -32.344091860522056 4.67613643864204 -10.141317273805122
ltibia 107.03598090251546
lfoot 17.41159264661688 -15.048993617205024
ltoes -3.1653849867664565
rfemur -20.878898682054807 5.983772392792735 35.597289833868096
rtibia 52.939803071465604
rfoot -27.96978051143248 -17.45698114506772
rtoes 12.270594303769776
lowerback 17.586789505547753 -0.48529917141009893 2.7062362710057855
upperback -0.3367969459448475 0.33772840284795025 4.034969911013999
thorax -10.29699079948175 0.14315408078473452 2.787619126839643
lowerneck -16.66781353625131 -3.0658669315084923 -2.5339847570685827
upperneck 11.914599657222707 -3.7533075082310816 1.333507685295149
head 6.42181706747384 -1.8169962251184173 0.45175611173552765
lclavicle -6.477657177669085e-16 -4.86068742279524e-15
lhumerus -52.46239831758742 -9.191957554964782 98.97849296873022
lradius 96.50511746027668
lwrist 29.885199640800188
lhand -32.3859973252726 0.6993293011724346
lfingers 7.125019999999998
lthumb -5.6213773541427 30.604798289973935
rclavicle -6.477657177669085e-16 -4.86068742279524e-15
rhumerus -41.21441048533498 9.34673431593407 -94.43091154184606
rradius 105.3770062910352
rwrist -14.601298402539934
rhand -21.310287075049107 39.55839491217698
rfingers 7.125019999999998
rthumb 5.074792938882014 9.639145010941775
13
root -0.6565822047321306 16.95371230131796 -23.676787484767726 4.644544567302449 0.5501929443378938 -4.9032281344485105
lfemur -37.66728935137603 3.0037307033141696 -11.405115405332001
ltibia 105.11598231329992
lfoot 14.456894466729667 -13.14559629180174
ltoes 3.8242478597580902
rfemur -15.68220109277064 5.285413748816556 35.53528990963683
rtibia 49.61940390329645
rfoot -27.335080703465355 -18.871478377680404
rtoes -0.9820098350420849
lowerback 16.772992781998653 0.0629003267945108 2.955815532265921
upperback -0.2083713481348698 0.9985778867755676 3.3744850472299617
thorax -9.690025993648915 0.42711233882095007 1.7383843183909455
lowerneck -18.09380687103204 -4.0800697357764655 -2.05948381747429
upperneck 12.766496181289991 -5.296980030058106 1.7890752468313438
head 6.964519688644206 -2.4818490852577253 0.3231941374774546
lclavicle -6.477657445275168e-16 -4.860687304353336e-15
lhumerus -54.30799676780352 -12.433600871254962 99.8390898110999
lradius 98.17991513282851
lwrist 30.009299491916135
lhand -31.88969908697634 2.1662832944980925
lfingers 7.125019999999998
lthumb -5.142249101320257 32.083893205478
rclavicle -6.477657445275168e-16 -4.860687304353336e-15
rhumerus -39.58661241966568 8.432186376000434 -94.89001048898888
rradius 108.92800228062151
rwrist -16.785093347389868
rhand -21.830884450071313 38.02189782867266
rfingers 7.125019999999998
rthumb 4.572075554717181 8.091228058822784
14
root -0.6656529037572487 17.162909044491485 -22.630787075339857 4.388985975078638 2.492726800224566 -4.74374881534206
lfemur -41.134986470139154 0.6459606693256759 -12.336613795515385
ltibia 100.65598358982234
lfoot 9.012787235471517 -10.076400049617433
ltoes 0.30142143963897183
rfemur -10.28170349289363 4.7899148895081645 36.035689052901
rtibia 46.09530586639109
rfoot -24.162482841832166 -19.56077768803228
rtoes -8.561252841551724
lowerback 16.996491918027182 0.2352272212893084 3.331684507932708
upperback -0.7313836603913688 1.3231781480381544 3.179896474829464
thorax -10.388189962113358 0.5497977173679783 1.23943670061857
lowerneck -16.77521289793812 -4.705385290027528 -2.138152317308745
upperneck 12.680896542757747 -6.194455710227061 2.053023828279386
head 6.744622685822787 -2.9060545034997474 0.34892073924706274
lclavicle -6.477657759421235e-16 -4.8606873550201035e-15
lhumerus -57.377094392319016 -13.698398258024485 100.80698626310459
lradius 99.6996129314324
lwrist 29.638799869832752
lhand -31.510800414496664 1.1710266674223262
lfingers 7.125019999999998
lthumb -4.776380414847508 31.097196640226098
rclavicle -6.477657759421235e-16 -4.8606873550201035e-15
rhumerus -39.988111748071596 8.840505378185137 -95.4268091417443
rradius 113.03799785722784
rwrist -18.90338858729339
rhand -23.115978642671053 39.4170950984244
rfingers 7.125019999999998
rthumb 3.3310716825846303 9.463405310682997
15
root -0.6536633019530266 17.392405447962116 -21.564289132346012 4.068647711399349 3.3148951453335824 -4.7870484334436245
lfemur -42.61938587667137 -0.6399580462479444 -13.144612363177359
ltibia 94.37468495795335
lfoot 3.8894999407576605 -7.780442974160366
ltoes -11.690497000766165
rfemur -4.9905060414988895 4.882914729977814 36.53728819980719
rtibia 42.812906885506514
rfoot -19.367486026043114 -18.978578438186894
rtoes -15.747388979990598
lowerback 17.208191084799584 0.6801081349287889 3.906092718262296
upperback -0.9391444063710199 2.0355043879283805 2.991347875621501
thorax -10.714187236588439 0.8433418705385849 0.5248471924577004
lowerneck -16.942812256424336 -5.185501856039451 -2.087613283980509
upperneck 13.294094124192341 -6.845932563256491 1.9013746762305328
head 6.977409512801147 -3.222241098205151 0.20778699524669325
lclavicle -6.477657284711715e-16 -4.860687395158822e-15
lhumerus -60.02869286399984 -13.796598018393146 101.10898527123504
lradius 101.2610110130969
lwrist 28.453201027132977
lhand -31.827699307934694 -1.1885753556266712
lfingers 7.125019999999998
lthumb -5.082369311701265 28.730504664024863
rclavicle -6.477657284711715e-16 -4.860687395158822e-15
rhumerus -40.6449111285073 9.561493912893702 -95.85960806974528
rradius 116.87499369400071
rwrist -19.842386345480012
rhand -21.437386466944588 40.80989247495668
rfingers 7.125019999999998
rthumb 4.9520636790758825 10.887792538968757
